<svg version="1.1" id="Layer_1" xmlns="http://www.w3.org/2000/svg" xmlns:xlink="http://www.w3.org/1999/xlink" x="0px" y="0px"
	 width="100%" viewBox="0 0 672 1024" enable-background="new 0 0 672 1024" xml:space="preserve">
<path fill="#000000" opacity="1.000000" stroke="none" 
	d="
M150.642487,646.908691 
	C150.656708,575.427612 150.666351,504.434570 150.679520,433.441559 
	C150.680893,426.067535 150.690659,426.061829 158.202438,426.045929 
	C171.200363,426.018494 184.200668,426.132843 197.194855,425.900970 
	C201.546097,425.823334 204.149612,427.506653 206.575256,431.039032 
	C216.100464,444.910248 225.897659,458.595734 235.675430,472.291962 
	C239.451355,477.581116 240.700134,477.508820 244.195023,472.183350 
	C254.157120,457.003174 264.093719,441.806274 274.059937,426.628815 
	C275.050018,425.121002 275.777374,423.362762 278.384583,422.069183 
	C294.406189,445.535431 310.497955,469.104401 326.732056,492.881866 
	C329.208771,490.515259 328.667297,488.744263 328.670990,487.159027 
	C328.713684,468.827637 328.617371,450.495453 328.770416,432.165253 
	C328.800964,428.507599 327.608215,426.433960 324.269379,424.817780 
	C310.479401,418.142517 296.855774,411.123871 283.075043,404.428925 
	C279.766632,402.821655 278.265015,400.726196 278.596069,397.064728 
	C279.251953,389.810944 276.971619,382.925934 275.872528,375.876740 
	C274.132294,364.715271 272.672913,353.471771 272.789459,342.143341 
	C272.834351,337.778259 271.276031,336.111755 266.981842,336.270477 
	C261.656403,336.467346 256.317444,336.263947 250.985352,336.324249 
	C246.590317,336.373962 244.758011,334.277954 244.632858,329.907959 
	C244.259827,316.883453 244.298126,316.756042 257.233795,316.716583 
	C260.066803,316.707947 262.899811,316.689423 265.732819,316.686798 
	C273.759369,316.679382 273.774323,316.684845 275.432526,308.738983 
	C276.858643,301.905243 278.181885,295.049500 279.665070,288.228363 
	C281.725739,278.751251 287.198273,273.772797 296.814697,274.143951 
	C314.977692,274.845032 333.111664,274.490265 351.265900,274.130280 
	C361.451050,273.928314 366.709991,278.493530 369.355682,288.574310 
	C371.424500,296.457062 373.543182,304.327911 375.488708,312.241180 
	C376.286957,315.487915 377.877380,316.884369 381.403412,316.784637 
	C389.395813,316.558563 397.400330,316.682098 405.398712,316.771088 
	C410.566437,316.828583 412.130188,318.494568 412.308228,323.730835 
	C412.720276,335.849854 412.271851,336.305450 399.977142,336.252380 
	C391.644714,336.216400 383.312286,336.162079 374.979828,336.148041 
	C367.270691,336.135071 367.172516,336.304199 370.104156,343.719879 
	C373.716339,352.856995 377.374176,361.976379 380.928986,371.135742 
	C382.767395,375.872620 381.172058,378.396790 376.136627,379.047455 
	C369.135742,379.952087 366.933594,382.793671 368.391663,390.283356 
	C369.362152,395.268524 369.430908,400.214478 369.215515,405.192108 
	C368.890808,412.694153 366.554749,414.857697 359.039124,415.053802 
	C356.873871,415.110291 354.706512,415.103241 352.540161,415.097992 
	C344.888672,415.079407 343.706421,416.350464 345.952637,423.940430 
	C348.548401,432.711639 350.945984,441.677887 354.832825,449.895752 
	C359.574768,459.921509 357.860199,467.951599 351.611450,476.613800 
	C345.895752,484.536957 341.655884,493.520844 336.704315,502.001495 
	C335.185669,504.602478 335.282410,506.664825 338.334991,508.332367 
	C341.999359,506.062897 343.550934,502.014221 345.850647,498.691498 
	C360.925079,476.911194 375.930084,455.080475 390.683899,433.082520 
	C393.760529,428.495270 396.957062,425.933044 402.769440,426.570801 
	C407.708649,427.112701 412.775818,426.941986 417.749695,426.581177 
	C422.300110,426.251068 423.405060,428.107513 423.372223,432.353027 
	C423.164856,459.182495 423.233276,486.013947 423.099274,512.844177 
	C422.875397,557.667053 422.495575,602.489258 422.397736,647.312317 
	C422.386932,652.272644 420.676422,653.591797 416.020538,653.410095 
	C408.033417,653.098572 400.025421,653.326965 392.026184,653.319641 
	C385.093567,653.313354 385.036682,653.307800 385.034424,646.513550 
	C385.025024,618.350525 385.065887,590.187439 385.061615,562.024414 
	C385.059662,549.192810 385.015137,536.361145 384.936981,523.529785 
	C384.926208,521.759827 385.387756,519.849487 383.126801,517.204224 
	C367.998413,539.291870 353.084290,561.066711 338.252014,582.721985 
	C335.439270,582.043762 334.820129,579.948120 333.742065,578.383545 
	C316.726532,553.688416 299.760895,528.958862 282.757355,504.255463 
	C279.354065,499.311066 278.341003,499.311829 274.994019,504.199738 
	C270.759430,510.384003 266.628326,516.639160 262.389832,522.820618 
	C260.716766,525.260681 260.128296,527.871155 260.127411,530.818726 
	C260.118011,561.315308 260.030914,591.811951 259.957184,622.308533 
	C259.935822,631.130554 259.798340,639.953613 259.896820,648.774170 
	C259.935608,652.250183 258.550049,653.439758 255.129349,653.374146 
	C246.133286,653.201782 237.123398,653.051819 228.136475,653.376282 
	C223.158310,653.556091 221.538132,652.025085 221.566376,646.898193 
	C221.771133,609.736145 221.632965,572.572266 221.755814,535.409546 
	C221.770279,531.034729 220.779953,527.400574 218.145859,523.852173 
	C210.798447,513.954468 203.759689,503.828125 196.527344,493.843994 
	C195.513504,492.444336 194.701950,490.564026 192.378189,490.564575 
	C190.349548,492.458069 191.232559,494.946960 191.229813,497.134888 
	C191.167847,546.463257 191.177902,595.791626 191.174988,645.120056 
	C191.174484,653.621033 191.176666,653.544678 182.919891,653.438843 
	C174.255295,653.327759 165.581131,653.163025 156.925766,653.454956 
	C152.299805,653.611084 149.875778,652.394897 150.642487,646.908691 
z"/>
<path fill="#000000" opacity="1.000000" stroke="none" 
	d="
M477.411133,634.195251 
	C477.387817,639.506470 477.218292,644.343750 477.391907,649.168701 
	C477.512939,652.532227 476.346344,654.119812 472.853210,654.034485 
	C462.531555,653.782471 452.207764,653.560852 441.883728,653.494873 
	C438.069763,653.470459 438.704071,650.872864 438.699921,648.648682 
	C438.663757,629.320251 438.661804,609.991821 438.666779,590.663330 
	C438.680298,538.176270 438.701263,485.689178 438.721832,433.202087 
	C438.724670,425.982239 438.731415,426.004486 445.898804,425.987518 
	C472.891663,425.923615 499.885803,425.960876 526.876282,425.667084 
	C531.998352,425.611298 533.538635,427.271698 533.357971,432.262787 
	C533.008606,441.915131 533.228516,451.587799 533.196106,461.252014 
	C533.172607,468.274902 533.153076,468.298767 526.337341,468.305145 
	C512.340820,468.318176 498.342621,468.433929 484.348694,468.242462 
	C479.990692,468.182861 478.044830,469.252930 478.168579,474.093536 
	C478.470825,485.916107 478.394348,497.754242 478.181305,509.580902 
	C478.106995,513.706970 479.541199,515.158447 483.641815,515.114075 
	C497.136444,514.968201 510.637115,515.260254 524.128723,515.014343 
	C528.949646,514.926514 530.531311,516.524841 530.370483,521.322632 
	C530.057922,530.643005 530.181091,539.983398 530.342651,549.311646 
	C530.406555,552.998779 528.976807,554.312805 525.345215,554.263672 
	C511.684052,554.078918 498.017090,554.231567 484.359406,553.933838 
	C479.568481,553.829346 478.091217,555.442871 478.086914,560.255432 
	C478.065002,584.742676 478.528503,609.238342 477.411133,634.195251 
z"/>
<path fill="#000000" opacity="1.000000" stroke="none" 
	d="
M279.666443,562.003784 
	C279.666260,556.393127 279.666260,551.281494 279.666260,546.119385 
	C282.132324,546.102905 282.546692,547.799683 283.350769,548.915344 
	C293.955688,563.630432 304.509430,578.382446 315.104004,593.104980 
	C316.283966,594.744629 317.380096,596.312988 317.375671,598.487915 
	C317.339264,616.435059 317.355103,634.382324 317.355103,652.435364 
	C314.237885,653.984619 311.042755,653.201782 307.972137,653.248230 
	C300.317810,653.364197 292.654358,653.101257 285.006927,653.358398 
	C280.835480,653.498718 279.573120,651.963135 279.592163,647.884766 
	C279.724976,619.424622 279.664917,590.963562 279.666443,562.003784 
z"/>
</svg>